<svg width="26" height="26" viewBox="0 0 26 26" fill="none" xmlns="http://www.w3.org/2000/svg">
<path d="M24.0841 1.90342C21.5475 -0.634474 17.3918 -0.634474 14.8553 1.90342L9.87196 6.88922C11.581 6.40324 13.434 6.52923 15.0531 7.2852L17.6436 4.69331C18.6511 3.68535 20.2882 3.68535 21.2956 4.69331C22.3031 5.70127 22.3031 7.3392 21.2956 8.34716L18.0394 11.605L15.8986 13.7469C14.8912 14.7549 13.2541 14.7549 12.2466 13.7469L9.45813 16.5368C10.1058 17.1849 10.8614 17.6708 11.6529 17.9768C13.7938 18.8227 16.2764 18.4987 18.1474 17.0227C18.3273 16.8788 18.5252 16.7168 18.6871 16.5368L22.0512 13.1709L24.0841 11.137C26.6387 8.59915 26.6387 4.45932 24.0841 1.90342Z" fill="#828896"/>
<path d="M10.8254 18.8228L8.34281 21.3067C7.33537 22.3148 5.69828 22.3148 4.69084 21.3067C3.6834 20.2988 3.6834 18.6609 4.69084 17.6529L10.0878 12.2532C11.0953 11.2452 12.7324 11.2452 13.7399 12.2532L16.5283 9.46328C15.8807 8.8153 15.1251 8.32932 14.3335 8.02334C12.0848 7.12337 9.44026 7.53736 7.55131 9.22929C7.46136 9.30128 7.37141 9.39128 7.29945 9.46328L1.90244 14.863C-0.634148 17.4009 -0.634148 21.5587 1.90244 24.0967C4.43904 26.6346 8.59473 26.6346 11.1313 24.0967L16.0067 19.1648C13.5239 19.7407 12.9483 19.6688 10.8254 18.8228Z" fill="#828896"/>
</svg>
