<svg width="119" height="48" viewBox="0 0 119 48" fill="none" xmlns="http://www.w3.org/2000/svg">
<path d="M4.70435 6.59987C5.42251 2.29274 9.47268 -0.612703 13.7506 0.110382L41.1195 4.73645C45.3972 5.45953 48.2831 9.53733 47.565 13.8445L42.9702 41.4002C42.2521 45.7071 38.2019 48.6127 33.9239 47.8896L6.55513 43.2635C2.2772 42.5405 -0.60855 38.4626 0.109633 34.1555L4.70435 6.59987Z" fill="#B4DBBE"/>
<path d="M36.8985 3.28223H10.7176C6.37976 3.28223 2.86328 6.82271 2.86328 11.1901V37.5497C2.86328 41.9171 6.37976 45.4576 10.7176 45.4576H36.8985C41.2363 45.4576 44.7528 41.9171 44.7528 37.5497V11.1901C44.7528 6.82271 41.2363 3.28223 36.8985 3.28223Z" fill="url(#paint0_linear_9_86)"/>
<path fill-rule="evenodd" clip-rule="evenodd" d="M29.004 12.8056C29.7153 12.9232 30.3201 13.0462 30.9458 13.2944C31.6053 13.6084 32.1148 14.0851 32.4743 14.7246C33.239 15.8902 34.297 18.3997 34.6502 19.9748C34.9379 19.5233 35.2735 19.1069 35.6571 18.7256C35.8176 18.5965 35.9974 18.506 36.1964 18.4541C36.5967 18.3663 37.3078 18.3346 37.635 18.3997C37.8563 18.4779 38 18.6287 38.0665 18.8523C38.1333 19.3888 38.1752 20.1733 38.0484 20.699C37.951 20.9321 37.7772 21.0649 37.5272 21.0972C36.6999 21.224 35.8081 21.2015 34.9738 21.224C35.7626 21.9825 36.3681 22.8696 36.7899 23.8853C37.3078 25.406 36.9944 29.2291 36.7719 30.5476C36.6533 31.2509 36.5224 31.9099 36.1066 32.4305C35.8927 32.6761 35.599 32.8477 35.2974 32.9642V33.915C35.3513 35.3366 34.8696 35.6002 34.5321 35.6529C33.9566 35.659 32.8285 35.6711 32.253 35.6529C31.7294 35.4684 31.5032 35.2048 31.5032 34.5305C31.5032 34.1681 31.4794 33.8067 31.4854 33.4442C29.8923 33.5463 28.2979 33.6187 26.7022 33.6615C24.2807 33.6659 21.8592 33.6538 19.4378 33.6253C18.3223 33.5745 17.1176 33.561 16.0033 33.4914V34.5458C16.0033 35.3366 15.551 35.6384 15.0273 35.6529C14.3801 35.6711 13.8637 35.659 13.2162 35.6529C12.802 35.635 12.2452 35.3366 12.2452 34.5458C12.2452 33.8868 12.2452 32.9735 12.2452 32.9735C11.1002 32.7006 10.9337 31.2377 10.7887 30.6201C10.471 28.7731 10.3631 26.9144 10.4651 25.044C10.6553 24.0824 11.0269 23.2013 11.5799 22.4007C11.8948 21.987 12.2364 21.5948 12.6048 21.224C12.0431 21.224 11.5195 21.1697 10.9865 21.1697C10.6645 21.1697 10.3413 21.1697 10.0155 21.0972C9.83124 21.0387 9.62792 20.9296 9.566 20.7714C9.48408 20.5621 9.43614 20.3449 9.42214 20.1196C9.38357 19.6811 9.42222 19.1071 9.55605 18.8618C9.69981 18.5982 9.92012 18.4727 10.0155 18.4664C10.4761 18.4358 11.3871 18.4174 11.7777 18.6532L12.1373 18.9429C12.4169 19.2706 12.6747 19.6146 12.9105 19.9748C13.3656 17.9844 14.3606 15.7033 15.5718 14.0728C15.8892 13.7169 16.2669 13.4453 16.7046 13.2581C17.2755 13.039 17.8629 12.8821 18.4668 12.7874C20.8138 12.4195 26.5736 12.4037 29.004 12.8056ZM17.0282 25.406C17.0175 24.7927 16.6333 24.2472 16.345 24.012C15.6964 23.5364 14.9892 23.4278 14.2232 23.6861C13.2519 24.1997 12.8623 25.0023 13.0544 26.094C13.2504 26.78 13.7449 27.2969 14.5828 27.5784C14.9692 27.6341 15.3527 27.6159 15.7336 27.5241C16.6196 27.0976 17.0511 26.3917 17.0282 25.406ZM34.5601 25.2612C34.4279 24.1337 33.5115 23.3429 32.0967 23.5594C30.8935 23.8701 30.3099 24.9497 30.6403 26.3112C31.1712 27.4142 32.0284 27.8186 33.2115 27.5241C34.1797 27.0908 34.6292 26.3364 34.5601 25.2612ZM20.5526 29.8596C22.566 29.901 24.5799 29.907 26.5943 29.8778C26.8506 29.8715 27.1022 29.8351 27.3496 29.7692C27.7517 29.5375 28.1903 29.0675 28.4825 28.5922C28.6984 28.2198 28.6327 27.9122 28.2845 27.6691C27.6208 27.2969 19.6959 27.2553 19.222 27.7052C18.9374 27.9754 18.8954 28.2833 19.0961 28.6286C19.3618 29.005 19.6675 29.349 20.0132 29.6606C20.0983 29.7273 20.3248 29.8549 20.5526 29.8596ZM29.8462 14.6442C28.0136 14.2488 19.6356 14.1829 17.803 14.6442C17.2793 14.776 16.8065 14.9078 16.5428 15.3401C15.5443 16.977 14.8551 18.7391 14.4749 20.6265C19.6834 20.1842 27.847 20.2929 33.0678 20.5903C32.706 18.686 32.0109 16.9178 30.9819 15.2858C30.7764 15.1361 30.618 14.8108 29.8462 14.6442Z" fill="white"/>
<path d="M64.4422 16.3318L63.2052 12.6506C63.1136 12.4169 63.0156 12.1432 62.912 11.8295C62.808 11.5097 62.7041 11.1653 62.6004 10.7962C62.5088 11.1714 62.4109 11.5189 62.3072 11.8388C62.2032 12.1586 62.1056 12.4354 62.014 12.6691L60.7861 16.3318H64.4422ZM69.3629 21.4706H66.9621C66.6933 21.4706 66.4765 21.409 66.3116 21.286C66.1466 21.1569 66.0212 20.9939 65.9359 20.7971L65.1478 18.4537H60.0713L59.2833 20.7971C59.216 20.9693 59.0937 21.1261 58.9168 21.2676C58.7455 21.4029 58.5319 21.4706 58.2753 21.4706H55.8562L61.0243 8.02847H64.1948L69.3629 21.4706ZM75.6587 19.118C76.0679 19.118 76.4009 19.0657 76.6575 18.9611C76.9201 18.8566 77.1248 18.7213 77.2714 18.5552C77.418 18.3891 77.5188 18.2015 77.5738 17.9924C77.6288 17.7833 77.6563 17.5711 77.6563 17.3558C77.6563 17.1098 77.6225 16.8884 77.5555 16.6916C77.4942 16.4947 77.3843 16.3287 77.2256 16.1934C77.0727 16.058 76.8682 15.9535 76.6117 15.8797C76.3551 15.8059 76.0312 15.769 75.6403 15.769H73.4778V19.118H75.6587ZM73.4778 10.3626V13.6839H75.0905C75.4325 13.6839 75.7411 13.6593 76.016 13.6101C76.2909 13.5609 76.5229 13.4748 76.7125 13.3518C76.9078 13.2288 77.0544 13.0596 77.1523 12.8444C77.256 12.6291 77.3081 12.3585 77.3081 12.0325C77.3081 11.7127 77.2683 11.4482 77.1889 11.2391C77.1094 11.0238 76.9873 10.8516 76.8224 10.7224C76.6575 10.5933 76.4467 10.501 76.1901 10.4457C75.9396 10.3903 75.6403 10.3626 75.2921 10.3626H73.4778ZM75.2921 8.02847C76.2145 8.02847 76.9994 8.11456 77.6471 8.2868C78.2946 8.45901 78.8229 8.70196 79.2324 9.01564C79.6416 9.32932 79.9379 9.71064 80.1212 10.1596C80.3105 10.6086 80.4053 11.1099 80.4053 11.6635C80.4053 11.9648 80.3623 12.257 80.277 12.5399C80.1914 12.8167 80.0571 13.0781 79.8738 13.3241C79.6905 13.564 79.4552 13.7854 79.1682 13.9884C78.881 14.1914 78.5359 14.3666 78.1328 14.5143C79.0124 14.7295 79.663 15.077 80.0846 15.5568C80.5061 16.0365 80.7168 16.6577 80.7168 17.4204C80.7168 17.9924 80.6069 18.5244 80.3869 19.0165C80.167 19.5085 79.8432 19.9391 79.4156 20.3081C78.9941 20.671 78.4718 20.957 77.8487 21.1661C77.2256 21.3691 76.5137 21.4706 75.7136 21.4706H70.3806V8.02847H75.2921ZM92.2519 10.501H88.4949V21.4706H85.3977V10.501H81.6408V8.02847H92.2519V10.501ZM106.625 14.7449C106.625 15.7167 106.457 16.6208 106.121 17.4573C105.791 18.2938 105.324 19.0226 104.719 19.6438C104.114 20.2589 103.384 20.7417 102.529 21.0923C101.68 21.4429 100.736 21.6182 99.6975 21.6182C98.6591 21.6182 97.7122 21.4429 96.8568 21.0923C96.0018 20.7417 95.2687 20.2589 94.6576 19.6438C94.0529 19.0226 93.5826 18.2938 93.2465 17.4573C92.9166 16.6208 92.7517 15.7167 92.7517 14.7449C92.7517 13.7731 92.9166 12.869 93.2465 12.0325C93.5826 11.196 94.0529 10.4702 94.6576 9.8552C95.2687 9.24012 96.0018 8.75732 96.8568 8.40673C97.7122 8.05615 98.6591 7.88086 99.6975 7.88086C100.736 7.88086 101.68 8.05921 102.529 8.41596C103.384 8.76654 104.114 9.24935 104.719 9.86442C105.324 10.4795 105.791 11.2052 106.121 12.0417C106.457 12.8782 106.625 13.7792 106.625 14.7449ZM103.454 14.7449C103.454 14.0806 103.369 13.484 103.198 12.9551C103.027 12.42 102.779 11.9679 102.456 11.5989C102.138 11.2299 101.747 10.9469 101.283 10.7501C100.819 10.5533 100.29 10.4549 99.6975 10.4549C99.099 10.4549 98.5644 10.5533 98.0939 10.7501C97.6297 10.9469 97.2357 11.2299 96.9118 11.5989C96.5942 11.9679 96.35 12.42 96.1788 12.9551C96.0078 13.484 95.9222 14.0806 95.9222 14.7449C95.9222 15.4153 96.0078 16.0181 96.1788 16.5532C96.35 17.0821 96.5942 17.5311 96.9118 17.9002C97.2357 18.2692 97.6297 18.5521 98.0939 18.7489C98.5644 18.9396 99.099 19.0349 99.6975 19.0349C100.29 19.0349 100.819 18.9396 101.283 18.7489C101.747 18.5521 102.138 18.2692 102.456 17.9002C102.779 17.5311 103.027 17.0821 103.198 16.5532C103.369 16.0181 103.454 15.4153 103.454 14.7449ZM69.9402 35.1618C69.9402 36.1519 69.7845 37.0623 69.4729 37.8927C69.1613 38.7167 68.7215 39.4271 68.1534 40.0238C67.5853 40.6204 66.9009 41.0848 66.1008 41.4169C65.3065 41.7428 64.4268 41.9059 63.4618 41.9059C62.4965 41.9059 61.6168 41.7428 60.8227 41.4169C60.0284 41.0848 59.3474 40.6204 58.7793 40.0238C58.2112 39.4271 57.7713 38.7167 57.4598 37.8927C57.1482 37.0623 56.9925 36.1519 56.9925 35.1618C56.9925 34.1715 57.1482 33.2642 57.4598 32.4402C57.7713 31.6098 58.2112 30.8963 58.7793 30.2998C59.3474 29.6969 60.0284 29.2296 60.8227 28.8974C61.6168 28.5653 62.4965 28.3992 63.4618 28.3992C64.4268 28.3992 65.3065 28.5653 66.1008 28.8974C66.9009 29.2296 67.5853 29.6969 68.1534 30.2998C68.7215 30.8963 69.1613 31.6098 69.4729 32.4402C69.7845 33.2642 69.9402 34.1715 69.9402 35.1618ZM68.1167 35.1618C68.1167 34.3499 68.0068 33.6211 67.7868 32.9753C67.5669 32.3295 67.2554 31.7851 66.8522 31.3423C66.449 30.8931 65.9602 30.5489 65.3861 30.309C64.8116 30.0691 64.1702 29.9492 63.4618 29.9492C62.7591 29.9492 62.1208 30.0691 61.5466 30.309C60.9722 30.5489 60.4805 30.8931 60.0713 31.3423C59.6681 31.7851 59.3566 32.3295 59.1367 32.9753C58.9168 33.6211 58.8068 34.3499 58.8068 35.1618C58.8068 35.9737 58.9168 36.7025 59.1367 37.3483C59.3566 37.9878 59.6681 38.5322 60.0713 38.9813C60.4805 39.4242 60.9722 39.7655 61.5466 40.0054C62.1208 40.2389 62.7591 40.356 63.4618 40.356C64.1702 40.356 64.8116 40.2389 65.3861 40.0054C65.9602 39.7655 66.449 39.4242 66.8522 38.9813C67.2554 38.5322 67.5669 37.9878 67.7868 37.3483C68.0068 36.7025 68.1167 35.9737 68.1167 35.1618ZM80.7721 30.0507H76.5203V41.7675H74.7518V30.0507H70.4908V28.5469H80.7721V30.0507ZM81.9602 29.7831C82.455 29.3403 83.0291 29.0018 83.6829 28.7683C84.3363 28.5345 85.0786 28.4177 85.9095 28.4177C86.5876 28.4177 87.1953 28.5007 87.733 28.6668C88.2766 28.8329 88.7379 29.0664 89.1167 29.368C89.4953 29.6693 89.7856 30.0259 89.9872 30.4382C90.1948 30.8502 90.2988 31.3022 90.2988 31.7944C90.2988 32.4586 90.1338 33.0428 89.804 33.5473C89.4801 34.0515 89.0219 34.4422 88.4295 34.719C88.7654 34.8603 89.0709 35.0355 89.3458 35.2448C89.6207 35.4478 89.8558 35.6785 90.0514 35.9368C90.253 36.1951 90.4056 36.4779 90.5095 36.7856C90.6195 37.0929 90.6745 37.4158 90.6745 37.7543C90.6745 38.3323 90.5674 38.8735 90.3538 39.378C90.1399 39.8823 89.8283 40.322 89.4191 40.6973C89.0159 41.0664 88.518 41.3584 87.9255 41.5738C87.3327 41.7889 86.6578 41.8967 85.9004 41.8967C84.9594 41.8967 84.1135 41.7428 83.3621 41.4354C82.6107 41.1217 81.9662 40.7002 81.4287 40.1715L81.9418 39.3227C81.9905 39.2549 82.0518 39.1996 82.1251 39.1566C82.1984 39.1073 82.2777 39.0828 82.3633 39.0828C82.4916 39.0828 82.6443 39.1534 82.8215 39.295C82.9985 39.4302 83.2247 39.581 83.4996 39.7471C83.7745 39.9131 84.1072 40.0668 84.4984 40.2084C84.8953 40.3436 85.3781 40.4113 85.9462 40.4113C86.4287 40.4113 86.8594 40.3528 87.2382 40.236C87.6231 40.119 87.9438 39.95 88.2004 39.7286C88.463 39.5072 88.6614 39.2365 88.796 38.9167C88.9363 38.5967 89.0067 38.2369 89.0067 37.8373C89.0067 37.4928 88.9395 37.1759 88.8052 36.887C88.6769 36.5979 88.4873 36.3519 88.237 36.149C87.9865 35.9397 87.6809 35.7799 87.3207 35.6692C86.9602 35.5522 86.5539 35.4939 86.102 35.4939H84.306V34.027H86.0287C86.4012 34.027 86.7463 33.9809 87.0641 33.8886C87.3877 33.7964 87.6626 33.6609 87.8888 33.4827C88.1208 33.3042 88.3012 33.086 88.4295 32.8277C88.5638 32.5693 88.6311 32.2741 88.6311 31.942C88.6311 31.6404 88.5698 31.3636 88.4478 31.1117C88.3255 30.8594 88.1483 30.644 87.9163 30.4658C87.6841 30.2813 87.4 30.1398 87.0641 30.0415C86.728 29.9429 86.3462 29.8938 85.9187 29.8938C85.4239 29.8938 85.0024 29.946 84.6542 30.0507C84.306 30.1551 84.0127 30.2721 83.7745 30.4013C83.5362 30.5241 83.3407 30.638 83.188 30.7426C83.0414 30.847 82.9131 30.8995 82.8032 30.8995C82.7053 30.8995 82.6259 30.8778 82.5649 30.8349C82.5037 30.7916 82.4458 30.721 82.3908 30.6227L81.9602 29.7831ZM97.5779 40.3467C98.085 40.3467 98.5188 40.2882 98.8791 40.1715C99.2456 40.0544 99.542 39.8947 99.7679 39.6917C100 39.4824 100.168 39.2333 100.272 38.9444C100.382 38.6492 100.437 38.3263 100.437 37.9757C100.437 37.6067 100.382 37.2806 100.272 36.9978C100.168 36.7086 100 36.4656 99.7679 36.2689C99.542 36.0659 99.2487 35.9152 98.8882 35.8168C98.528 35.7122 98.0942 35.66 97.587 35.66H95.0305V40.3467H97.5779ZM97.587 34.2392C98.3874 34.2392 99.0778 34.3283 99.6579 34.5068C100.238 34.6789 100.715 34.9248 101.087 35.2448C101.466 35.5585 101.744 35.9336 101.921 36.3704C102.105 36.8069 102.196 37.2838 102.196 37.8004C102.196 38.4093 102.093 38.9597 101.885 39.4518C101.683 39.9376 101.384 40.3528 100.987 40.6973C100.596 41.0416 100.113 41.3062 99.5388 41.4908C98.9647 41.6753 98.3109 41.7675 97.5779 41.7675H93.2619V28.5469H95.0305V34.2392H97.587ZM106.384 41.7675H104.606V28.5469H106.384V41.7675ZM114.354 40.3467C114.861 40.3467 115.298 40.2882 115.665 40.1715C116.031 40.0544 116.331 39.8915 116.563 39.6825C116.801 39.4671 116.975 39.2149 117.085 38.926C117.195 38.6307 117.25 38.3078 117.25 37.9572C117.25 37.2745 117.009 36.7363 116.526 36.3427C116.044 35.9428 115.32 35.743 114.354 35.743H111.514V40.3467H114.354ZM111.514 29.9584V34.4699H113.86C114.361 34.4699 114.794 34.4145 115.161 34.3038C115.534 34.1931 115.839 34.0392 116.077 33.8425C116.322 33.6456 116.502 33.4089 116.618 33.1321C116.734 32.849 116.792 32.5417 116.792 32.2095C116.792 31.4282 116.56 30.8594 116.095 30.5027C115.631 30.1398 114.91 29.9584 113.933 29.9584H111.514ZM113.933 28.5469C114.739 28.5469 115.433 28.6267 116.013 28.7867C116.599 28.9465 117.079 29.1742 117.452 29.4694C117.83 29.7647 118.108 30.1274 118.285 30.5581C118.463 30.9825 118.551 31.4622 118.551 31.9973C118.551 32.3231 118.499 32.6368 118.395 32.9384C118.298 33.2336 118.148 33.5104 117.946 33.7687C117.745 34.027 117.488 34.2606 117.177 34.4699C116.871 34.6728 116.511 34.8389 116.095 34.9681C117.061 35.1526 117.785 35.5 118.267 36.0106C118.756 36.5148 119 37.1791 119 38.0034C119 38.563 118.896 39.0736 118.689 39.5349C118.487 39.9962 118.188 40.3929 117.791 40.725C117.4 41.0571 116.917 41.3155 116.343 41.5C115.769 41.6782 115.115 41.7675 114.382 41.7675H109.745V28.5469H113.933Z" fill="#181818"/>
<defs>
<linearGradient id="paint0_linear_9_86" x1="44.7528" y1="45.4576" x2="0.658776" y2="43.0109" gradientUnits="userSpaceOnUse">
<stop stop-color="#21A038"/>
<stop offset="1" stop-color="#00C036"/>
</linearGradient>
</defs>
</svg>
